<mxfile host="app.diagrams.net" modified="2023-02-20T05:53:42.778Z" agent="5.0 (Windows NT 10.0; Win64; x64) AppleWebKit/537.36 (KHTML, like Gecko) Chrome/112.0.0.0 Safari/537.36" etag="0B6_Faq2FHiVY5vKCMmv" version="20.8.20" type="github">
  <diagram name="第 1 页" id="2FOWjIGs0MbMXwwmlCjl">
    <mxGraphModel dx="653" dy="690" grid="1" gridSize="10" guides="1" tooltips="1" connect="1" arrows="1" fold="1" page="1" pageScale="1" pageWidth="827" pageHeight="1169" math="0" shadow="0">
      <root>
        <mxCell id="0" />
        <mxCell id="1" parent="0" />
        <mxCell id="8BZ6JR4wGZKDwxJxdWdJ-2" value="" style="rounded=0;whiteSpace=wrap;html=1;" vertex="1" parent="1">
          <mxGeometry x="240" y="47" width="330" height="130" as="geometry" />
        </mxCell>
        <mxCell id="8BZ6JR4wGZKDwxJxdWdJ-3" value="" style="rounded=0;whiteSpace=wrap;html=1;rotation=90;" vertex="1" parent="1">
          <mxGeometry x="540.29" y="76.72" width="128.98" height="69.53" as="geometry" />
        </mxCell>
        <mxCell id="8BZ6JR4wGZKDwxJxdWdJ-5" value="" style="shape=cube;whiteSpace=wrap;html=1;boundedLbl=1;backgroundOutline=1;darkOpacity=0.05;darkOpacity2=0.1;" vertex="1" parent="1">
          <mxGeometry x="161" y="47" width="49" height="150" as="geometry" />
        </mxCell>
        <mxCell id="8BZ6JR4wGZKDwxJxdWdJ-7" value="" style="rounded=0;whiteSpace=wrap;html=1;" vertex="1" parent="1">
          <mxGeometry x="80" y="47" width="80" height="130" as="geometry" />
        </mxCell>
        <mxCell id="8BZ6JR4wGZKDwxJxdWdJ-4" value="" style="shape=cube;whiteSpace=wrap;html=1;boundedLbl=1;backgroundOutline=1;darkOpacity=0.05;darkOpacity2=0.1;" vertex="1" parent="1">
          <mxGeometry x="40" y="47" width="60" height="160" as="geometry" />
        </mxCell>
        <mxCell id="8BZ6JR4wGZKDwxJxdWdJ-8" value="" style="rounded=0;whiteSpace=wrap;html=1;" vertex="1" parent="1">
          <mxGeometry x="447" y="62" width="80" height="35" as="geometry" />
        </mxCell>
        <mxCell id="8BZ6JR4wGZKDwxJxdWdJ-9" value="" style="shape=image;verticalLabelPosition=bottom;labelBackgroundColor=default;verticalAlign=top;aspect=fixed;imageAspect=0;image=data:image/png,iVBORw0KGgoAAAANSUhEUgAAAMgAAADICAYAAACtWK6eAAAAAXNSR0IArs4c6QAADy5JREFUeF7tnQnwftUYx79NssxUBpORNWVpFKaxFir7VraJkhAlyRYJjaUsYyxZZmisWVukBiWmhSghRImYbEkmESFbZJuv/7nzv/1/733fe889y3PO+Z6Zd2rqnnOe5/vcz+/ec+45z9kIKlJACgwqsJG0kQJSYFgBAaK7QwosUUCA6PaQAgJE94AU8FNATxA/3VSrEQUESCOBlpt+CggQP91UqxEFBEgjgZabfgoIED/dVKsRBQRII4GWm34KCBA/3VSrEQUESCOBlpt+CggQP91UqxEFBEgjgZabfgoIED/dVKsRBQRII4GWm34KCBA/3VSrEQUESCOBlpt+CggQP91UqxEFBEgjgZabfgoIED/dVKsRBQRII4GWm34KCBA/3VSrEQUESCOBlpt+CggQP91UqxEFBEgjgZabfgoIED/dVKsRBQRII4GWm34KCBA/3VSrEQUESCOBlpt+CggQP91UqxEFBEgjgZabfgoIED/dVKsRBQRII4GWm34KCBA/3VSrEQUESCOBlpt+CggQP91UqxEFBEgjgZabfgoIED/dVKsRBQRII4GWm34KCBA/3VSrEQUESCOBlpt+CggQP91UqxEFBEgjgZabfgoIED/dVKsRBQRII4GWm34KtALIAQC2B3Ar99vS/fM/AC4H8Kve7wQAP/KTU7VqU6BmQO4FYH8A+wDYdGLgvg3gswDOAHD+xLq6vCIFagRkRwCHAnhioDidCuBDAE4O1J6aKUiB2gDhE+ODkfQ/zbX96Ujtq1mDCtQCyMYAjgWwZwKNz3SgnJigL3WRWYEaAHkAgHMz6HiWe/U6PkPf6jKRAqUDwtmoKxJpNdTNOe6JckxmO9R9BAVKB+SnALaJoItPk19zoHzMp7Lq2FSgZEA4WA41UxUyOue5V6+jQzaqtvIoUCogRwA4PI9ko3vl9xPOqPH339G1dKEpBUoE5P4A+N6/iSklh425wEHCbynXFWKzzHQKlAjIKQB2LzCCF7lXLz5Rri3Q/iZNLg2QgwAcVXikLu6B8tfCfane/JIA2dq9Wt2mkqhc0hujXFOJT9W5URIgfIffr7oIAJyq5msX/bu6Qv+KdqkUQPYAUPvSjkt7r15XFX1XVWR8CYBwqTpnrXaoSPdlrnB/Sjc9fGUjPpt1swRA3gTgMLMKxjOMS2i6Vy9u6FLJoIB1QHYGcHYGXSx1+Zveq9dllgxrwRbrgHAPxiNbCMQIH3/fe/X6+YjrdUkABSwDcjCAdwbwsbYm/th79fpxbc5Z88cqINu6gfkW1gQzZM+fe69eSjIRKTBWAfk4gKdH8rm2Zv/ee/X6QW3O5fbHIiB7u+2zubUprf9/9kD5XmnGW7XXGiC3cLNW21kVrAC7/t0bo3ynAHtNm2gNkLcDeKlpxcoyjstX+C3lW2WZbcdaS4A83CVqs6NOPZZ8xIHyjXpcSuOJJUC+DGDXNG432wsnP/hU+WqzCkx03AogrwDw5om263J/BY5zT5Sv+DfRRk0LgNzTffPYvA3JTXnJRN0co3zJlFWGjLEACIP0FEOatGjKSe7V6/QWnV/mc25AngXgwwqKGQWY0Z5PlC+YsSizIbkBYbK1nTJroO7XKvA5Bwr/2XTJCQiTvilTuu3bj08SPlH4ZGmy5ATkSACHNKl6eU5zbMLpYY5Vmio5AWFW9L2aUrt8ZznbxScKJ1aaKDkB0YfBcm8xfj8hKPyeUnURIFWHN7pz/CLPVy9+oa+y5ATkE+6AzSqFbcwprvHiE4VrvqoqOQF5G4CXVaWmnOGq4S4TSxVq5ARE07xV3EILneA+lG6pPfenFFtyAkLR9KGw2FtnlOHc2dglweOOx+JKbkCeDOBTxakmg6cqwL3yHSjcQ19MyQ0IhRIkxdwusw1l9pVujMKsLOaLBUAo0oNcetFHm1dMBoZQgPm8ujEK83yZLVYA6QR6DoBnA+Axayr1K8AMkd2rFzNHmivWAOkEepoD5SHmFJNBMRRgzuHu1Yu5iM0Uq4B0AnEqmE+U3cwoJkNiKsAs9nz14vbrf8TsaGzb1gHp/GACa4KinYdjI1v2dWcBeC7Wnb6VtZQCSCcSB/MEZd+sqqnzFArwxK39ARCWbKU0QDqh7gHgQAfLjbKpp45TKHC/nInvSgWkC8ztALzYgXKzFNFSH8kV4KLWZyTv1XVYOiCdbpsBONSBUssx0bnuCYv9cgx6Rg7DagGkr90rHSh3ziGo+oyiAJNHPC5KyysarRGQzmWOUfhjYjqVshW4BsBNc7hQMyCdntz3znGKvs7nuMPC9ZnlXs3SaTjNJrXE99iXA9DX+UmymbiYaYf40Th5aQmQTlxOG74KwO7J1VaHvgowA+dHfSvPqdciIJ1ed3Wg6CzEOXdQ/Lp/ArAVgCyrflsGpAvtLQG8GsAL48daPXgo8DoAR3jUC1IlNyA3BMCTpe4z4M0vAHwTQIpjjmkLX714Vom+zge5vWY3khUOWp8TkO1d4rG7j5CRoPBDEf+S/HrE9XMveYmDhYeKqgBHAWAWGv4B4Z6dFCU7HLkB4WrN93konVI4Hc8A7LPBsdxbut2fsV5JL3Gzjad43BvBq+R8gsxJPcr9AocFV2Ntg1y+8tYE/VjsgnszdgHAXX+LCkHhk5YahSqfdHBcHqrBue2UCgj9vjeA2OeAnwhgj7kiF1j/MwCeNNJugvI8N9Ex537i2M/cH6M5Do3Ub/CyOU8QNvpFN8Cfa8ey+j8BcKeYHRhsmx9TOd6YWggKX5tZ/yYTKl/gJkbOnFAn2aUlA0KRuHyEs1yxyrUNzWj9zn2tPnemmB0oLwKwagsCj9/jk4N9myylA8IgvDuistzyuU3E9q00zac5p9tDpgntQDkAAP+9X/7mwHiPFQGG7CgdkGMjZ4if+xpoPf60711usB3L1g4ULlfn6gWOb97r0s7G6jNYu6UDwoNcHhxMjbUNcU8009HUWJjZkP6NTf16R5eNn5kw/wCA2n8gwURJVu0FyHL5eVMMTXNmDdzMznmex54Axk6n7gfgtQBuv6BfQlItKAJk9Z32jsCvIOe4o69vsLrrKFfwZuZs05hyFwCHA9h7xMVVglI6ICPitvISvmowTT9vmh8uuPq2AM4GsPXKlsZdwH0pVwHgV3r+Nh1XbfZVPH6ABxaNndTgbkw+NTYcYK8ypCpQBMj6cF8M4DEAfrngDtgVAAfsc8sLsG5dU1e27YGyxdzGl9T/LoCDRk6Jc40cweBYY06pAhQBcv1b4P1uH/uiG2OnmTMv/Co/lBnyDi7RBJ8oTGUUsvCAzWeObJDT5oQj5CLNokERIGvvnCcAOHnghuIThrNatx55w/EyDoS5hGLMnD/3pnBATFBCZGXhOqkjR9i6gwODvscqDwPAc9aLKgJkbbj4ZX5nAENHhnXz+tyJuGxcwlc2/vXm78qJdwXzfHWgMIvk1MK+Od44bUTFQxwcm4+4ds4l3LLAbc48baqYIkAWh4r7TrisflV5hPsOw4E8fxzkc7k2p4ZPB3DdqgZW/H/OdBEU5iO+78i2TnBZXFYdI8C9+Xyd4lMxVdluYCIkVf+T+xEgw5JxrwpXqVopTL9JULgEfai8BsAbRxjMrQKE48Yjrg15Ccc2V4dsMHZbAmS5wlwWwR10lk4/4uwSQXlUz/SfAeCr0tDYqbv0gQ4MrrtKXbgB6vGpO53bnwBZrSC/OnN25/zVlya9gt9TOD65CABtZPbBZYVPDP42Tmrl+s54/uSYMVEm8xZ3K0DGh4Pv9sw0/vnxVa535d0A8C99jpOTuN5q7ncNT7f/X+2kzP172y5ApkvHRXrHuL/ai768dy1yoxX/anY//nd+tefSlZRpbCwcs/3Q3AfhTA/zuhoCxFe5dfX+4p4KPNaYsBAK/vgN4+ZLmuZ3hwvndT26NmHkeqpc5TgAPJS1yCJA8oSNyQ64DyNF4T6MVYP3mHbw2Ly5uxRj2re0bQGSR3rO5qRMa8Mv828BEHO91yIlmU+XfRdbBEj60DE5AT8wpi7cOswn1/MTdpz1fMEQfgqQECpOa4Nw5MzgwWU0BCXmuisqMmXfyTQFE14tQBKK7RYsxspIONWTpzpQhvIiT22vf/2/XL7lVBMRc2zVGCSaetMa/j6Ax07Y5jqtdb+r+dGQTxP+pqxQXtUbVy5b+UOwylYBMkuhMJU5i8Mct5eFaS54K9xrTkgODtAyU/rwqbTsG1GAbtI0oVes+Dqf6s75ZiYQ62VHB8qcr+78EMp1YVUUARIvjFe4zVVvCJyQLZ7F61tmPmI+UbiLckrhKVBcls+UrVUUARI+jASj22aa4iyT8B6sb5GnAxMUbgkeU1Jl3R9jS5BrSgeE66JyF+4W5G45HhdAOM5LdMhPKr+7Yw4IyrJURb91Tw+r4ywvvWoAJGZmRS9RK63E4yYIyVCOrNdnXvMVRXYBEkXWqhvlMhmC0t/ZeLRLY1qd4wKkupAmc2hfl4SB33dSLt9P5iA7Kh0QZglnQjQVKRBFgdIB4UpRrhhVkQJRFCgdEG5jTXGGehTx1ah9BUoGpIrVovZvkbYtLBkQbmktYflG23dY4d6XCgj3OHOvs4oUiKpATkD2AnD8RO94LjrP8Yh9PvpEs3R5rQrkBIRp/rlPejcATNY8VLiM4+vuEBuOO1SkQDIFcgLSOckTlriMYVHhup5Lk6mhjqTABgpYAERBkQJmFRAgZkMjwywoIEAsREE2mFVAgJgNjQyzoIAAsRAF2WBWAQFiNjQyzIICAsRCFGSDWQUEiNnQyDALCggQC1GQDWYVECBmQyPDLCggQCxEQTaYVUCAmA2NDLOggACxEAXZYFYBAWI2NDLMggICxEIUZINZBQSI2dDIMAsKCBALUZANZhUQIGZDI8MsKCBALERBNphVQICYDY0Ms6CAALEQBdlgVgEBYjY0MsyCAgLEQhRkg1kFBIjZ0MgwCwoIEAtRkA1mFRAgZkMjwywoIEAsREE2mFVAgJgNjQyzoIAAsRAF2WBWAQFiNjQyzIICAsRCFGSDWQUEiNnQyDALCggQC1GQDWYVECBmQyPDLCggQCxEQTaYVUCAmA2NDLOggACxEAXZYFYBAWI2NDLMggICxEIUZINZBQSI2dDIMAsKCBALUZANZhUQIGZDI8MsKCBALERBNphVQICYDY0Ms6CAALEQBdlgVgEBYjY0MsyCAv8DZQ7t2FCW2mIAAAAASUVORK5CYII=;rotation=-85;flipH=1;" vertex="1" parent="1">
          <mxGeometry x="478" y="40" width="40" height="40" as="geometry" />
        </mxCell>
        <mxCell id="8BZ6JR4wGZKDwxJxdWdJ-10" value="" style="endArrow=none;html=1;rounded=0;entryX=0.25;entryY=0;entryDx=0;entryDy=0;exitX=0.25;exitY=1;exitDx=0;exitDy=0;" edge="1" parent="1" source="8BZ6JR4wGZKDwxJxdWdJ-2" target="8BZ6JR4wGZKDwxJxdWdJ-2">
          <mxGeometry width="50" height="50" relative="1" as="geometry">
            <mxPoint x="330" y="117" as="sourcePoint" />
            <mxPoint x="380" y="67" as="targetPoint" />
          </mxGeometry>
        </mxCell>
        <mxCell id="8BZ6JR4wGZKDwxJxdWdJ-11" value="" style="endArrow=none;dashed=1;html=1;dashPattern=1 3;strokeWidth=2;rounded=0;exitX=0.5;exitY=1;exitDx=0;exitDy=0;entryX=0.67;entryY=0.565;entryDx=0;entryDy=0;entryPerimeter=0;" edge="1" parent="1" source="8BZ6JR4wGZKDwxJxdWdJ-2" target="8BZ6JR4wGZKDwxJxdWdJ-9">
          <mxGeometry width="50" height="50" relative="1" as="geometry">
            <mxPoint x="390" y="247" as="sourcePoint" />
            <mxPoint x="440" y="197" as="targetPoint" />
          </mxGeometry>
        </mxCell>
        <mxCell id="8BZ6JR4wGZKDwxJxdWdJ-12" value="" style="endArrow=none;dashed=1;html=1;dashPattern=1 3;strokeWidth=2;rounded=0;exitX=1;exitY=0.25;exitDx=0;exitDy=0;" edge="1" parent="1" source="8BZ6JR4wGZKDwxJxdWdJ-2">
          <mxGeometry width="50" height="50" relative="1" as="geometry">
            <mxPoint x="333" y="187" as="sourcePoint" />
            <mxPoint x="500" y="67" as="targetPoint" />
          </mxGeometry>
        </mxCell>
        <mxCell id="8BZ6JR4wGZKDwxJxdWdJ-13" value="" style="shape=image;verticalLabelPosition=bottom;labelBackgroundColor=default;verticalAlign=top;aspect=fixed;imageAspect=0;image=data:image/png,iVBORw0KGgoAAAANSUhEUgAAAMgAAADICAYAAACtWK6eAAAAAXNSR0IArs4c6QAADy5JREFUeF7tnQnwftUYx79NssxUBpORNWVpFKaxFir7VraJkhAlyRYJjaUsYyxZZmisWVukBiWmhSghRImYbEkmESFbZJuv/7nzv/1/733fe889y3PO+Z6Zd2rqnnOe5/vcz+/ec+45z9kIKlJACgwqsJG0kQJSYFgBAaK7QwosUUCA6PaQAgJE94AU8FNATxA/3VSrEQUESCOBlpt+CggQP91UqxEFBEgjgZabfgoIED/dVKsRBQRII4GWm34KCBA/3VSrEQUESCOBlpt+CggQP91UqxEFBEgjgZabfgoIED/dVKsRBQRII4GWm34KCBA/3VSrEQUESCOBlpt+CggQP91UqxEFBEgjgZabfgoIED/dVKsRBQRII4GWm34KCBA/3VSrEQUESCOBlpt+CggQP91UqxEFBEgjgZabfgoIED/dVKsRBQRII4GWm34KCBA/3VSrEQUESCOBlpt+CggQP91UqxEFBEgjgZabfgoIED/dVKsRBQRII4GWm34KCBA/3VSrEQUESCOBlpt+CggQP91UqxEFBEgjgZabfgoIED/dVKsRBQRII4GWm34KCBA/3VSrEQUESCOBlpt+CggQP91UqxEFBEgjgZabfgoIED/dVKsRBQRII4GWm34KtALIAQC2B3Ar99vS/fM/AC4H8Kve7wQAP/KTU7VqU6BmQO4FYH8A+wDYdGLgvg3gswDOAHD+xLq6vCIFagRkRwCHAnhioDidCuBDAE4O1J6aKUiB2gDhE+ODkfQ/zbX96Ujtq1mDCtQCyMYAjgWwZwKNz3SgnJigL3WRWYEaAHkAgHMz6HiWe/U6PkPf6jKRAqUDwtmoKxJpNdTNOe6JckxmO9R9BAVKB+SnALaJoItPk19zoHzMp7Lq2FSgZEA4WA41UxUyOue5V6+jQzaqtvIoUCogRwA4PI9ko3vl9xPOqPH339G1dKEpBUoE5P4A+N6/iSklh425wEHCbynXFWKzzHQKlAjIKQB2LzCCF7lXLz5Rri3Q/iZNLg2QgwAcVXikLu6B8tfCfane/JIA2dq9Wt2mkqhc0hujXFOJT9W5URIgfIffr7oIAJyq5msX/bu6Qv+KdqkUQPYAUPvSjkt7r15XFX1XVWR8CYBwqTpnrXaoSPdlrnB/Sjc9fGUjPpt1swRA3gTgMLMKxjOMS2i6Vy9u6FLJoIB1QHYGcHYGXSx1+Zveq9dllgxrwRbrgHAPxiNbCMQIH3/fe/X6+YjrdUkABSwDcjCAdwbwsbYm/th79fpxbc5Z88cqINu6gfkW1gQzZM+fe69eSjIRKTBWAfk4gKdH8rm2Zv/ee/X6QW3O5fbHIiB7u+2zubUprf9/9kD5XmnGW7XXGiC3cLNW21kVrAC7/t0bo3ynAHtNm2gNkLcDeKlpxcoyjstX+C3lW2WZbcdaS4A83CVqs6NOPZZ8xIHyjXpcSuOJJUC+DGDXNG432wsnP/hU+WqzCkx03AogrwDw5om263J/BY5zT5Sv+DfRRk0LgNzTffPYvA3JTXnJRN0co3zJlFWGjLEACIP0FEOatGjKSe7V6/QWnV/mc25AngXgwwqKGQWY0Z5PlC+YsSizIbkBYbK1nTJroO7XKvA5Bwr/2XTJCQiTvilTuu3bj08SPlH4ZGmy5ATkSACHNKl6eU5zbMLpYY5Vmio5AWFW9L2aUrt8ZznbxScKJ1aaKDkB0YfBcm8xfj8hKPyeUnURIFWHN7pz/CLPVy9+oa+y5ATkE+6AzSqFbcwprvHiE4VrvqoqOQF5G4CXVaWmnOGq4S4TSxVq5ARE07xV3EILneA+lG6pPfenFFtyAkLR9KGw2FtnlOHc2dglweOOx+JKbkCeDOBTxakmg6cqwL3yHSjcQ19MyQ0IhRIkxdwusw1l9pVujMKsLOaLBUAo0oNcetFHm1dMBoZQgPm8ujEK83yZLVYA6QR6DoBnA+Axayr1K8AMkd2rFzNHmivWAOkEepoD5SHmFJNBMRRgzuHu1Yu5iM0Uq4B0AnEqmE+U3cwoJkNiKsAs9nz14vbrf8TsaGzb1gHp/GACa4KinYdjI1v2dWcBeC7Wnb6VtZQCSCcSB/MEZd+sqqnzFArwxK39ARCWbKU0QDqh7gHgQAfLjbKpp45TKHC/nInvSgWkC8ztALzYgXKzFNFSH8kV4KLWZyTv1XVYOiCdbpsBONSBUssx0bnuCYv9cgx6Rg7DagGkr90rHSh3ziGo+oyiAJNHPC5KyysarRGQzmWOUfhjYjqVshW4BsBNc7hQMyCdntz3znGKvs7nuMPC9ZnlXs3SaTjNJrXE99iXA9DX+UmymbiYaYf40Th5aQmQTlxOG74KwO7J1VaHvgowA+dHfSvPqdciIJ1ed3Wg6CzEOXdQ/Lp/ArAVgCyrflsGpAvtLQG8GsAL48daPXgo8DoAR3jUC1IlNyA3BMCTpe4z4M0vAHwTQIpjjmkLX714Vom+zge5vWY3khUOWp8TkO1d4rG7j5CRoPBDEf+S/HrE9XMveYmDhYeKqgBHAWAWGv4B4Z6dFCU7HLkB4WrN93konVI4Hc8A7LPBsdxbut2fsV5JL3Gzjad43BvBq+R8gsxJPcr9AocFV2Ntg1y+8tYE/VjsgnszdgHAXX+LCkHhk5YahSqfdHBcHqrBue2UCgj9vjeA2OeAnwhgj7kiF1j/MwCeNNJugvI8N9Ex537i2M/cH6M5Do3Ub/CyOU8QNvpFN8Cfa8ey+j8BcKeYHRhsmx9TOd6YWggKX5tZ/yYTKl/gJkbOnFAn2aUlA0KRuHyEs1yxyrUNzWj9zn2tPnemmB0oLwKwagsCj9/jk4N9myylA8IgvDuistzyuU3E9q00zac5p9tDpgntQDkAAP+9X/7mwHiPFQGG7CgdkGMjZ4if+xpoPf60711usB3L1g4ULlfn6gWOb97r0s7G6jNYu6UDwoNcHhxMjbUNcU8009HUWJjZkP6NTf16R5eNn5kw/wCA2n8gwURJVu0FyHL5eVMMTXNmDdzMznmex54Axk6n7gfgtQBuv6BfQlItKAJk9Z32jsCvIOe4o69vsLrrKFfwZuZs05hyFwCHA9h7xMVVglI6ICPitvISvmowTT9vmh8uuPq2AM4GsPXKlsZdwH0pVwHgV3r+Nh1XbfZVPH6ABxaNndTgbkw+NTYcYK8ypCpQBMj6cF8M4DEAfrngDtgVAAfsc8sLsG5dU1e27YGyxdzGl9T/LoCDRk6Jc40cweBYY06pAhQBcv1b4P1uH/uiG2OnmTMv/Co/lBnyDi7RBJ8oTGUUsvCAzWeObJDT5oQj5CLNokERIGvvnCcAOHnghuIThrNatx55w/EyDoS5hGLMnD/3pnBATFBCZGXhOqkjR9i6gwODvscqDwPAc9aLKgJkbbj4ZX5nAENHhnXz+tyJuGxcwlc2/vXm78qJdwXzfHWgMIvk1MK+Od44bUTFQxwcm4+4ds4l3LLAbc48baqYIkAWh4r7TrisflV5hPsOw4E8fxzkc7k2p4ZPB3DdqgZW/H/OdBEU5iO+78i2TnBZXFYdI8C9+Xyd4lMxVdluYCIkVf+T+xEgw5JxrwpXqVopTL9JULgEfai8BsAbRxjMrQKE48Yjrg15Ccc2V4dsMHZbAmS5wlwWwR10lk4/4uwSQXlUz/SfAeCr0tDYqbv0gQ4MrrtKXbgB6vGpO53bnwBZrSC/OnN25/zVlya9gt9TOD65CABtZPbBZYVPDP42Tmrl+s54/uSYMVEm8xZ3K0DGh4Pv9sw0/vnxVa535d0A8C99jpOTuN5q7ncNT7f/X+2kzP172y5ApkvHRXrHuL/ai768dy1yoxX/anY//nd+tefSlZRpbCwcs/3Q3AfhTA/zuhoCxFe5dfX+4p4KPNaYsBAK/vgN4+ZLmuZ3hwvndT26NmHkeqpc5TgAPJS1yCJA8oSNyQ64DyNF4T6MVYP3mHbw2Ly5uxRj2re0bQGSR3rO5qRMa8Mv828BEHO91yIlmU+XfRdbBEj60DE5AT8wpi7cOswn1/MTdpz1fMEQfgqQECpOa4Nw5MzgwWU0BCXmuisqMmXfyTQFE14tQBKK7RYsxspIONWTpzpQhvIiT22vf/2/XL7lVBMRc2zVGCSaetMa/j6Ax07Y5jqtdb+r+dGQTxP+pqxQXtUbVy5b+UOwylYBMkuhMJU5i8Mct5eFaS54K9xrTkgODtAyU/rwqbTsG1GAbtI0oVes+Dqf6s75ZiYQ62VHB8qcr+78EMp1YVUUARIvjFe4zVVvCJyQLZ7F61tmPmI+UbiLckrhKVBcls+UrVUUARI+jASj22aa4iyT8B6sb5GnAxMUbgkeU1Jl3R9jS5BrSgeE66JyF+4W5G45HhdAOM5LdMhPKr+7Yw4IyrJURb91Tw+r4ywvvWoAJGZmRS9RK63E4yYIyVCOrNdnXvMVRXYBEkXWqhvlMhmC0t/ZeLRLY1qd4wKkupAmc2hfl4SB33dSLt9P5iA7Kh0QZglnQjQVKRBFgdIB4UpRrhhVkQJRFCgdEG5jTXGGehTx1ah9BUoGpIrVovZvkbYtLBkQbmktYflG23dY4d6XCgj3OHOvs4oUiKpATkD2AnD8RO94LjrP8Yh9PvpEs3R5rQrkBIRp/rlPejcATNY8VLiM4+vuEBuOO1SkQDIFcgLSOckTlriMYVHhup5Lk6mhjqTABgpYAERBkQJmFRAgZkMjwywoIEAsREE2mFVAgJgNjQyzoIAAsRAF2WBWAQFiNjQyzIICAsRCFGSDWQUEiNnQyDALCggQC1GQDWYVECBmQyPDLCggQCxEQTaYVUCAmA2NDLOggACxEAXZYFYBAWI2NDLMggICxEIUZINZBQSI2dDIMAsKCBALUZANZhUQIGZDI8MsKCBALERBNphVQICYDY0Ms6CAALEQBdlgVgEBYjY0MsyCAgLEQhRkg1kFBIjZ0MgwCwoIEAtRkA1mFRAgZkMjwywoIEAsREE2mFVAgJgNjQyzoIAAsRAF2WBWAQFiNjQyzIICAsRCFGSDWQUEiNnQyDALCggQC1GQDWYVECBmQyPDLCggQCxEQTaYVUCAmA2NDLOggACxEAXZYFYBAWI2NDLMggICxEIUZINZBQSI2dDIMAsKCBALUZANZhUQIGZDI8MsKCBALERBNphVQICYDY0Ms6CAALEQBdlgVgEBYjY0MsyCAv8DZQ7t2FCW2mIAAAAASUVORK5CYII=;rotation=105;flipH=1;" vertex="1" parent="1">
          <mxGeometry x="137.53999999999996" y="204.12" width="30" height="30" as="geometry" />
        </mxCell>
        <mxCell id="8BZ6JR4wGZKDwxJxdWdJ-14" value="" style="endArrow=none;dashed=1;html=1;dashPattern=1 3;strokeWidth=2;rounded=0;entryX=1.05;entryY=0.706;entryDx=0;entryDy=0;entryPerimeter=0;" edge="1" parent="1" source="8BZ6JR4wGZKDwxJxdWdJ-13" target="8BZ6JR4wGZKDwxJxdWdJ-4">
          <mxGeometry width="50" height="50" relative="1" as="geometry">
            <mxPoint x="13" y="-103" as="sourcePoint" />
            <mxPoint x="190" y="-213" as="targetPoint" />
          </mxGeometry>
        </mxCell>
        <mxCell id="8BZ6JR4wGZKDwxJxdWdJ-15" value="" style="endArrow=none;dashed=1;html=1;dashPattern=1 3;strokeWidth=2;rounded=0;entryX=0.388;entryY=0.733;entryDx=0;entryDy=0;entryPerimeter=0;" edge="1" parent="1" target="8BZ6JR4wGZKDwxJxdWdJ-5">
          <mxGeometry width="50" height="50" relative="1" as="geometry">
            <mxPoint x="151" y="215" as="sourcePoint" />
            <mxPoint x="113" y="170" as="targetPoint" />
          </mxGeometry>
        </mxCell>
        <mxCell id="8BZ6JR4wGZKDwxJxdWdJ-16" value="" style="endArrow=none;dashed=1;html=1;rounded=0;exitX=1;exitY=0.688;exitDx=0;exitDy=0;exitPerimeter=0;entryX=-0.082;entryY=0.733;entryDx=0;entryDy=0;entryPerimeter=0;" edge="1" parent="1" source="8BZ6JR4wGZKDwxJxdWdJ-4" target="8BZ6JR4wGZKDwxJxdWdJ-5">
          <mxGeometry width="50" height="50" relative="1" as="geometry">
            <mxPoint x="-40" y="157" as="sourcePoint" />
            <mxPoint x="10" y="107" as="targetPoint" />
          </mxGeometry>
        </mxCell>
        <mxCell id="8BZ6JR4wGZKDwxJxdWdJ-17" value="" style="endArrow=none;dashed=1;html=1;rounded=0;exitX=1;exitY=0.688;exitDx=0;exitDy=0;exitPerimeter=0;entryX=-0.082;entryY=0.733;entryDx=0;entryDy=0;entryPerimeter=0;" edge="1" parent="1">
          <mxGeometry width="50" height="50" relative="1" as="geometry">
            <mxPoint x="100" y="167" as="sourcePoint" />
            <mxPoint x="157" y="167" as="targetPoint" />
          </mxGeometry>
        </mxCell>
        <mxCell id="8BZ6JR4wGZKDwxJxdWdJ-18" value="盲&lt;br&gt;区" style="text;html=1;align=center;verticalAlign=middle;resizable=0;points=[];autosize=1;strokeColor=none;fillColor=none;fontStyle=1" vertex="1" parent="1">
          <mxGeometry x="115" y="153" width="40" height="40" as="geometry" />
        </mxCell>
        <mxCell id="8BZ6JR4wGZKDwxJxdWdJ-20" value="可能存在的盲区" style="text;html=1;align=center;verticalAlign=middle;resizable=0;points=[];autosize=1;strokeColor=none;fillColor=none;" vertex="1" parent="1">
          <mxGeometry x="510" y="45" width="110" height="30" as="geometry" />
        </mxCell>
        <mxCell id="8BZ6JR4wGZKDwxJxdWdJ-21" value="可能存在的盲区" style="text;html=1;align=center;verticalAlign=middle;resizable=0;points=[];autosize=1;strokeColor=none;fillColor=none;" vertex="1" parent="1">
          <mxGeometry x="310" y="146.25" width="110" height="30" as="geometry" />
        </mxCell>
        <mxCell id="8BZ6JR4wGZKDwxJxdWdJ-22" value="前面玻璃面板顶" style="text;html=1;align=center;verticalAlign=middle;resizable=0;points=[];autosize=1;strokeColor=none;fillColor=none;" vertex="1" parent="1">
          <mxGeometry x="101" y="225" width="110" height="30" as="geometry" />
        </mxCell>
        <mxCell id="8BZ6JR4wGZKDwxJxdWdJ-23" value="后面侧墙上" style="text;html=1;align=center;verticalAlign=middle;resizable=0;points=[];autosize=1;strokeColor=none;fillColor=none;" vertex="1" parent="1">
          <mxGeometry x="412" y="40" width="80" height="30" as="geometry" />
        </mxCell>
        <mxCell id="8BZ6JR4wGZKDwxJxdWdJ-24" value="&lt;font style=&quot;font-size: 18px;&quot;&gt;&lt;b&gt;对于前面玻璃顶上的安装方案：&lt;/b&gt;&lt;/font&gt;&lt;br&gt;&amp;nbsp; &amp;nbsp; &amp;nbsp; &amp;nbsp; &amp;nbsp; &amp;nbsp; &amp;nbsp; &amp;nbsp; &amp;nbsp;①、用胶粘在玻璃面上，&lt;br&gt;&amp;nbsp; &amp;nbsp; &amp;nbsp; &amp;nbsp; &amp;nbsp; &amp;nbsp; &amp;nbsp; &amp;nbsp; &amp;nbsp; &amp;nbsp; &amp;nbsp; &amp;nbsp; 优点：施工便捷，利于维护；&lt;br&gt;&amp;nbsp; &amp;nbsp; &amp;nbsp; &amp;nbsp; &amp;nbsp; &amp;nbsp; &amp;nbsp; &amp;nbsp; &amp;nbsp; &amp;nbsp; &amp;nbsp; &amp;nbsp; &amp;nbsp;缺点：不耐造（日晒雨淋导致脱落的风险）&lt;br&gt;&amp;nbsp; &amp;nbsp; &amp;nbsp; &amp;nbsp; &amp;nbsp; &amp;nbsp; &amp;nbsp; &amp;nbsp; &amp;nbsp;②、对玻璃下方的钢架打孔安装；&lt;br&gt;&amp;nbsp; &amp;nbsp; &amp;nbsp; &amp;nbsp; &amp;nbsp; &amp;nbsp; &amp;nbsp; &amp;nbsp; &amp;nbsp; &amp;nbsp; &amp;nbsp; &amp;nbsp; &amp;nbsp; 优点：牢固稳当。&lt;br&gt;&amp;nbsp; &amp;nbsp; &amp;nbsp; &amp;nbsp; &amp;nbsp; &amp;nbsp; &amp;nbsp; &amp;nbsp; &amp;nbsp; &amp;nbsp; &amp;nbsp; &amp;nbsp; &amp;nbsp; 缺点：增加施工难度及成本。" style="text;html=1;align=left;verticalAlign=middle;resizable=0;points=[];autosize=1;strokeColor=none;fillColor=none;" vertex="1" parent="1">
          <mxGeometry x="249" y="197" width="330" height="120" as="geometry" />
        </mxCell>
      </root>
    </mxGraphModel>
  </diagram>
</mxfile>
